STARTFONT 2.1
FONT --Peridot-Regular-R-Normal--7-70-72-72-P-44-ISO8859-1
SIZE 7 72 72
FONTBOUNDINGBOX 5 7 0 -2
METRICSSET 2
STARTPROPERTIES 18
PIXEL_SIZE 7
RESOLUTION_X 72
RESOLUTION_Y 72
POINT_SIZE 70
FACE_NAME "Peridot Regular 7"
FONT_VERSION "1"
FOUNDRY ""
FAMILY_NAME "Peridot"
WEIGHT_NAME "Regular"
RELATIVE_WEIGHT 50
SLANT "R"
SPACING "P"
SETWIDTH_NAME "Normal"
RELATIVE_SETWIDTH 50
ADD_STYLE_NAME ""
AVERAGE_WIDTH 44
CHARSET_REGISTRY "ISO8859"
CHARSET_ENCODING "1"
ENDPROPERTIES
CHARS 97
STARTCHAR space
ENCODING 32
SWIDTH 714 0
DWIDTH 5 0
BBX 0 0 0 -2
VVECTOR 0 -2
SWIDTH1 0 0
DWIDTH1 0 0
BITMAP 
ENDCHAR
STARTCHAR exclam
ENCODING 33
SWIDTH 286 0
DWIDTH 2 0
BBX 1 5 0 0
VVECTOR 0 5
SWIDTH1 0 -1000
DWIDTH1 0 -7
BITMAP 
80
80
80
00
80
ENDCHAR
STARTCHAR quotedbl
ENCODING 34
SWIDTH 571 0
DWIDTH 4 0
BBX 3 2 0 3
VVECTOR 2 5
SWIDTH1 0 -1000
DWIDTH1 0 -7
BITMAP 
A0
A0
ENDCHAR
STARTCHAR numbersign
ENCODING 35
SWIDTH 857 0
DWIDTH 6 0
BBX 5 5 0 0
VVECTOR 3 5
SWIDTH1 0 -1000
DWIDTH1 0 -7
BITMAP 
50
F8
50
F8
50
ENDCHAR
STARTCHAR dollar
ENCODING 36
SWIDTH 714 0
DWIDTH 5 0
BBX 4 6 0 -1
VVECTOR 2 5
SWIDTH1 0 -1000
DWIDTH1 0 -7
BITMAP 
40
70
C0
30
E0
40
ENDCHAR
STARTCHAR percent
ENCODING 37
SWIDTH 571 0
DWIDTH 4 0
BBX 3 5 0 0
VVECTOR 2 5
SWIDTH1 0 -1000
DWIDTH1 0 -7
BITMAP 
A0
20
40
80
A0
ENDCHAR
STARTCHAR ampersand
ENCODING 38
SWIDTH 857 0
DWIDTH 6 0
BBX 5 5 0 0
VVECTOR 3 5
SWIDTH1 0 -1000
DWIDTH1 0 -7
BITMAP 
20
20
F8
A0
60
ENDCHAR
STARTCHAR quotesingle
ENCODING 39
SWIDTH 429 0
DWIDTH 3 0
BBX 2 2 0 3
VVECTOR 1 5
SWIDTH1 0 -1000
DWIDTH1 0 -7
BITMAP 
40
80
ENDCHAR
STARTCHAR parenleft
ENCODING 40
SWIDTH 429 0
DWIDTH 3 0
BBX 2 5 0 0
VVECTOR 1 5
SWIDTH1 0 -1000
DWIDTH1 0 -7
BITMAP 
40
80
80
80
40
ENDCHAR
STARTCHAR parenright
ENCODING 41
SWIDTH 429 0
DWIDTH 3 0
BBX 2 5 0 0
VVECTOR 1 5
SWIDTH1 0 -1000
DWIDTH1 0 -7
BITMAP 
80
40
40
40
80
ENDCHAR
STARTCHAR asterisk
ENCODING 42
SWIDTH 714 0
DWIDTH 5 0
BBX 4 5 0 0
VVECTOR 2 5
SWIDTH1 0 -1000
DWIDTH1 0 -7
BITMAP 
90
60
F0
60
90
ENDCHAR
STARTCHAR plus
ENCODING 43
SWIDTH 571 0
DWIDTH 4 0
BBX 3 3 0 1
VVECTOR 2 5
SWIDTH1 0 -1000
DWIDTH1 0 -7
BITMAP 
40
E0
40
ENDCHAR
STARTCHAR comma
ENCODING 44
SWIDTH 429 0
DWIDTH 3 0
BBX 2 2 0 -1
VVECTOR 1 5
SWIDTH1 0 -1000
DWIDTH1 0 -7
BITMAP 
40
80
ENDCHAR
STARTCHAR hyphen
ENCODING 45
SWIDTH 571 0
DWIDTH 4 0
BBX 3 1 0 2
VVECTOR 2 5
SWIDTH1 0 -1000
DWIDTH1 0 -7
BITMAP 
E0
ENDCHAR
STARTCHAR period
ENCODING 46
SWIDTH 286 0
DWIDTH 2 0
BBX 1 1 0 0
VVECTOR 0 5
SWIDTH1 0 -1000
DWIDTH1 0 -7
BITMAP 
80
ENDCHAR
STARTCHAR slash
ENCODING 47
SWIDTH 571 0
DWIDTH 4 0
BBX 3 5 0 0
VVECTOR 2 5
SWIDTH1 0 -1000
DWIDTH1 0 -7
BITMAP 
20
20
40
80
80
ENDCHAR
STARTCHAR zero
ENCODING 48
SWIDTH 714 0
DWIDTH 5 0
BBX 4 5 0 0
VVECTOR 2 5
SWIDTH1 0 -1000
DWIDTH1 0 -7
BITMAP 
60
B0
D0
90
60
ENDCHAR
STARTCHAR one
ENCODING 49
SWIDTH 429 0
DWIDTH 3 0
BBX 2 5 0 0
VVECTOR 1 5
SWIDTH1 0 -1000
DWIDTH1 0 -7
BITMAP 
40
C0
40
40
40
ENDCHAR
STARTCHAR two
ENCODING 50
SWIDTH 714 0
DWIDTH 5 0
BBX 4 5 0 0
VVECTOR 2 5
SWIDTH1 0 -1000
DWIDTH1 0 -7
BITMAP 
60
90
20
40
F0
ENDCHAR
STARTCHAR three
ENCODING 51
SWIDTH 571 0
DWIDTH 4 0
BBX 3 5 0 0
VVECTOR 2 5
SWIDTH1 0 -1000
DWIDTH1 0 -7
BITMAP 
C0
20
C0
20
C0
ENDCHAR
STARTCHAR four
ENCODING 52
SWIDTH 714 0
DWIDTH 5 0
BBX 4 5 0 0
VVECTOR 2 5
SWIDTH1 0 -1000
DWIDTH1 0 -7
BITMAP 
10
90
F0
10
10
ENDCHAR
STARTCHAR five
ENCODING 53
SWIDTH 714 0
DWIDTH 5 0
BBX 4 5 0 0
VVECTOR 2 5
SWIDTH1 0 -1000
DWIDTH1 0 -7
BITMAP 
F0
80
E0
10
E0
ENDCHAR
STARTCHAR six
ENCODING 54
SWIDTH 714 0
DWIDTH 5 0
BBX 4 5 0 0
VVECTOR 2 5
SWIDTH1 0 -1000
DWIDTH1 0 -7
BITMAP 
60
80
E0
90
60
ENDCHAR
STARTCHAR seven
ENCODING 55
SWIDTH 714 0
DWIDTH 5 0
BBX 4 5 0 0
VVECTOR 2 5
SWIDTH1 0 -1000
DWIDTH1 0 -7
BITMAP 
F0
10
20
40
40
ENDCHAR
STARTCHAR eight
ENCODING 56
SWIDTH 714 0
DWIDTH 5 0
BBX 4 5 0 0
VVECTOR 2 5
SWIDTH1 0 -1000
DWIDTH1 0 -7
BITMAP 
60
90
60
90
60
ENDCHAR
STARTCHAR nine
ENCODING 57
SWIDTH 714 0
DWIDTH 5 0
BBX 4 5 0 0
VVECTOR 2 5
SWIDTH1 0 -1000
DWIDTH1 0 -7
BITMAP 
60
90
70
10
60
ENDCHAR
STARTCHAR colon
ENCODING 58
SWIDTH 286 0
DWIDTH 2 0
BBX 1 4 0 0
VVECTOR 0 5
SWIDTH1 0 -1000
DWIDTH1 0 -7
BITMAP 
80
00
00
80
ENDCHAR
STARTCHAR semicolon
ENCODING 59
SWIDTH 429 0
DWIDTH 3 0
BBX 2 5 0 -1
VVECTOR 1 5
SWIDTH1 0 -1000
DWIDTH1 0 -7
BITMAP 
40
00
00
40
80
ENDCHAR
STARTCHAR less
ENCODING 60
SWIDTH 571 0
DWIDTH 4 0
BBX 3 5 0 0
VVECTOR 2 5
SWIDTH1 0 -1000
DWIDTH1 0 -7
BITMAP 
20
40
80
40
20
ENDCHAR
STARTCHAR equal
ENCODING 61
SWIDTH 571 0
DWIDTH 4 0
BBX 3 3 0 1
VVECTOR 2 5
SWIDTH1 0 -1000
DWIDTH1 0 -7
BITMAP 
E0
00
E0
ENDCHAR
STARTCHAR greater
ENCODING 62
SWIDTH 571 0
DWIDTH 4 0
BBX 3 5 0 0
VVECTOR 2 5
SWIDTH1 0 -1000
DWIDTH1 0 -7
BITMAP 
80
40
20
40
80
ENDCHAR
STARTCHAR question
ENCODING 63
SWIDTH 714 0
DWIDTH 5 0
BBX 4 5 0 0
VVECTOR 2 5
SWIDTH1 0 -1000
DWIDTH1 0 -7
BITMAP 
60
90
30
00
20
ENDCHAR
STARTCHAR at
ENCODING 64
SWIDTH 714 0
DWIDTH 5 0
BBX 4 5 0 0
VVECTOR 2 5
SWIDTH1 0 -1000
DWIDTH1 0 -7
BITMAP 
60
90
B0
80
60
ENDCHAR
STARTCHAR A
ENCODING 65
SWIDTH 714 0
DWIDTH 5 0
BBX 4 5 0 0
VVECTOR 2 5
SWIDTH1 0 -1000
DWIDTH1 0 -7
BITMAP 
60
90
B0
D0
90
ENDCHAR
STARTCHAR B
ENCODING 66
SWIDTH 714 0
DWIDTH 5 0
BBX 4 5 0 0
VVECTOR 2 5
SWIDTH1 0 -1000
DWIDTH1 0 -7
BITMAP 
E0
90
E0
90
E0
ENDCHAR
STARTCHAR C
ENCODING 67
SWIDTH 714 0
DWIDTH 5 0
BBX 4 5 0 0
VVECTOR 2 5
SWIDTH1 0 -1000
DWIDTH1 0 -7
BITMAP 
60
90
80
90
60
ENDCHAR
STARTCHAR D
ENCODING 68
SWIDTH 714 0
DWIDTH 5 0
BBX 4 5 0 0
VVECTOR 2 5
SWIDTH1 0 -1000
DWIDTH1 0 -7
BITMAP 
E0
90
90
90
E0
ENDCHAR
STARTCHAR E
ENCODING 69
SWIDTH 571 0
DWIDTH 4 0
BBX 3 5 0 0
VVECTOR 2 5
SWIDTH1 0 -1000
DWIDTH1 0 -7
BITMAP 
E0
80
C0
80
E0
ENDCHAR
STARTCHAR F
ENCODING 70
SWIDTH 571 0
DWIDTH 4 0
BBX 3 5 0 0
VVECTOR 2 5
SWIDTH1 0 -1000
DWIDTH1 0 -7
BITMAP 
E0
80
C0
80
80
ENDCHAR
STARTCHAR G
ENCODING 71
SWIDTH 714 0
DWIDTH 5 0
BBX 4 5 0 0
VVECTOR 2 5
SWIDTH1 0 -1000
DWIDTH1 0 -7
BITMAP 
70
80
B0
90
60
ENDCHAR
STARTCHAR H
ENCODING 72
SWIDTH 714 0
DWIDTH 5 0
BBX 4 5 0 0
VVECTOR 2 5
SWIDTH1 0 -1000
DWIDTH1 0 -7
BITMAP 
90
90
F0
90
90
ENDCHAR
STARTCHAR I
ENCODING 73
SWIDTH 571 0
DWIDTH 4 0
BBX 3 5 0 0
VVECTOR 2 5
SWIDTH1 0 -1000
DWIDTH1 0 -7
BITMAP 
E0
40
40
40
E0
ENDCHAR
STARTCHAR J
ENCODING 74
SWIDTH 714 0
DWIDTH 5 0
BBX 4 5 0 0
VVECTOR 2 5
SWIDTH1 0 -1000
DWIDTH1 0 -7
BITMAP 
70
10
10
90
60
ENDCHAR
STARTCHAR K
ENCODING 75
SWIDTH 714 0
DWIDTH 5 0
BBX 4 5 0 0
VVECTOR 2 5
SWIDTH1 0 -1000
DWIDTH1 0 -7
BITMAP 
90
A0
E0
90
90
ENDCHAR
STARTCHAR L
ENCODING 76
SWIDTH 571 0
DWIDTH 4 0
BBX 3 5 0 0
VVECTOR 2 5
SWIDTH1 0 -1000
DWIDTH1 0 -7
BITMAP 
80
80
80
80
E0
ENDCHAR
STARTCHAR M
ENCODING 77
SWIDTH 857 0
DWIDTH 6 0
BBX 5 5 0 0
VVECTOR 3 5
SWIDTH1 0 -1000
DWIDTH1 0 -7
BITMAP 
D8
A8
A8
88
88
ENDCHAR
STARTCHAR N
ENCODING 78
SWIDTH 714 0
DWIDTH 5 0
BBX 4 5 0 0
VVECTOR 2 5
SWIDTH1 0 -1000
DWIDTH1 0 -7
BITMAP 
90
D0
B0
90
90
ENDCHAR
STARTCHAR O
ENCODING 79
SWIDTH 714 0
DWIDTH 5 0
BBX 4 5 0 0
VVECTOR 2 5
SWIDTH1 0 -1000
DWIDTH1 0 -7
BITMAP 
60
90
90
90
60
ENDCHAR
STARTCHAR P
ENCODING 80
SWIDTH 714 0
DWIDTH 5 0
BBX 4 5 0 0
VVECTOR 2 5
SWIDTH1 0 -1000
DWIDTH1 0 -7
BITMAP 
E0
90
90
E0
80
ENDCHAR
STARTCHAR Q
ENCODING 81
SWIDTH 714 0
DWIDTH 5 0
BBX 4 5 0 0
VVECTOR 2 5
SWIDTH1 0 -1000
DWIDTH1 0 -7
BITMAP 
60
90
90
A0
50
ENDCHAR
STARTCHAR R
ENCODING 82
SWIDTH 714 0
DWIDTH 5 0
BBX 4 5 0 0
VVECTOR 2 5
SWIDTH1 0 -1000
DWIDTH1 0 -7
BITMAP 
E0
90
90
E0
90
ENDCHAR
STARTCHAR S
ENCODING 83
SWIDTH 714 0
DWIDTH 5 0
BBX 4 5 0 0
VVECTOR 2 5
SWIDTH1 0 -1000
DWIDTH1 0 -7
BITMAP 
70
80
60
10
E0
ENDCHAR
STARTCHAR T
ENCODING 84
SWIDTH 571 0
DWIDTH 4 0
BBX 3 5 0 0
VVECTOR 2 5
SWIDTH1 0 -1000
DWIDTH1 0 -7
BITMAP 
E0
40
40
40
40
ENDCHAR
STARTCHAR U
ENCODING 85
SWIDTH 714 0
DWIDTH 5 0
BBX 4 5 0 0
VVECTOR 2 5
SWIDTH1 0 -1000
DWIDTH1 0 -7
BITMAP 
90
90
90
90
70
ENDCHAR
STARTCHAR V
ENCODING 86
SWIDTH 714 0
DWIDTH 5 0
BBX 4 5 0 0
VVECTOR 2 5
SWIDTH1 0 -1000
DWIDTH1 0 -7
BITMAP 
90
90
90
A0
40
ENDCHAR
STARTCHAR W
ENCODING 87
SWIDTH 857 0
DWIDTH 6 0
BBX 5 5 0 0
VVECTOR 3 5
SWIDTH1 0 -1000
DWIDTH1 0 -7
BITMAP 
88
88
A8
A8
50
ENDCHAR
STARTCHAR X
ENCODING 88
SWIDTH 857 0
DWIDTH 6 0
BBX 5 5 0 0
VVECTOR 3 5
SWIDTH1 0 -1000
DWIDTH1 0 -7
BITMAP 
88
50
20
50
88
ENDCHAR
STARTCHAR Y
ENCODING 89
SWIDTH 714 0
DWIDTH 5 0
BBX 4 5 0 0
VVECTOR 2 5
SWIDTH1 0 -1000
DWIDTH1 0 -7
BITMAP 
90
90
A0
40
40
ENDCHAR
STARTCHAR Z
ENCODING 90
SWIDTH 571 0
DWIDTH 4 0
BBX 3 5 0 0
VVECTOR 2 5
SWIDTH1 0 -1000
DWIDTH1 0 -7
BITMAP 
E0
20
40
80
E0
ENDCHAR
STARTCHAR bracketleft
ENCODING 91
SWIDTH 429 0
DWIDTH 3 0
BBX 2 5 0 0
VVECTOR 1 5
SWIDTH1 0 -1000
DWIDTH1 0 -7
BITMAP 
C0
80
80
80
C0
ENDCHAR
STARTCHAR backslash
ENCODING 92
SWIDTH 571 0
DWIDTH 4 0
BBX 3 5 0 0
VVECTOR 2 5
SWIDTH1 0 -1000
DWIDTH1 0 -7
BITMAP 
80
80
40
20
20
ENDCHAR
STARTCHAR bracketright
ENCODING 93
SWIDTH 429 0
DWIDTH 3 0
BBX 2 5 0 0
VVECTOR 1 5
SWIDTH1 0 -1000
DWIDTH1 0 -7
BITMAP 
C0
40
40
40
C0
ENDCHAR
STARTCHAR asciicircum
ENCODING 94
SWIDTH 571 0
DWIDTH 4 0
BBX 3 2 0 3
VVECTOR 2 5
SWIDTH1 0 -1000
DWIDTH1 0 -7
BITMAP 
40
A0
ENDCHAR
STARTCHAR underscore
ENCODING 95
SWIDTH 714 0
DWIDTH 5 0
BBX 4 1 0 -2
VVECTOR 2 5
SWIDTH1 0 -1000
DWIDTH1 0 -7
BITMAP 
F0
ENDCHAR
STARTCHAR grave
ENCODING 96
SWIDTH 429 0
DWIDTH 3 0
BBX 2 3 0 2
VVECTOR 1 5
SWIDTH1 0 -1000
DWIDTH1 0 -7
BITMAP 
80
80
40
ENDCHAR
STARTCHAR a
ENCODING 97
SWIDTH 714 0
DWIDTH 5 0
BBX 4 4 0 0
VVECTOR 2 5
SWIDTH1 0 -1000
DWIDTH1 0 -7
BITMAP 
70
90
90
70
ENDCHAR
STARTCHAR b
ENCODING 98
SWIDTH 714 0
DWIDTH 5 0
BBX 4 5 0 0
VVECTOR 2 5
SWIDTH1 0 -1000
DWIDTH1 0 -7
BITMAP 
80
E0
90
90
E0
ENDCHAR
STARTCHAR c
ENCODING 99
SWIDTH 571 0
DWIDTH 4 0
BBX 3 4 0 0
VVECTOR 2 5
SWIDTH1 0 -1000
DWIDTH1 0 -7
BITMAP 
60
80
80
60
ENDCHAR
STARTCHAR d
ENCODING 100
SWIDTH 714 0
DWIDTH 5 0
BBX 4 5 0 0
VVECTOR 2 5
SWIDTH1 0 -1000
DWIDTH1 0 -7
BITMAP 
10
70
90
90
70
ENDCHAR
STARTCHAR e
ENCODING 101
SWIDTH 714 0
DWIDTH 5 0
BBX 4 4 0 0
VVECTOR 2 5
SWIDTH1 0 -1000
DWIDTH1 0 -7
BITMAP 
70
90
A0
70
ENDCHAR
STARTCHAR f
ENCODING 102
SWIDTH 429 0
DWIDTH 3 0
BBX 2 5 0 0
VVECTOR 1 5
SWIDTH1 0 -1000
DWIDTH1 0 -7
BITMAP 
40
80
C0
80
80
ENDCHAR
STARTCHAR g
ENCODING 103
SWIDTH 714 0
DWIDTH 5 0
BBX 4 6 0 -2
VVECTOR 2 5
SWIDTH1 0 -1000
DWIDTH1 0 -7
BITMAP 
70
90
90
60
10
E0
ENDCHAR
STARTCHAR h
ENCODING 104
SWIDTH 714 0
DWIDTH 5 0
BBX 4 5 0 0
VVECTOR 2 5
SWIDTH1 0 -1000
DWIDTH1 0 -7
BITMAP 
80
E0
90
90
90
ENDCHAR
STARTCHAR i
ENCODING 105
SWIDTH 286 0
DWIDTH 2 0
BBX 1 5 0 0
VVECTOR 0 5
SWIDTH1 0 -1000
DWIDTH1 0 -7
BITMAP 
80
00
80
80
80
ENDCHAR
STARTCHAR j
ENCODING 106
SWIDTH 429 0
DWIDTH 3 0
BBX 2 7 0 -2
VVECTOR 1 5
SWIDTH1 0 -1000
DWIDTH1 0 -7
BITMAP 
40
00
40
40
40
40
80
ENDCHAR
STARTCHAR k
ENCODING 107
SWIDTH 571 0
DWIDTH 4 0
BBX 3 5 0 0
VVECTOR 2 5
SWIDTH1 0 -1000
DWIDTH1 0 -7
BITMAP 
80
80
A0
C0
A0
ENDCHAR
STARTCHAR l
ENCODING 108
SWIDTH 286 0
DWIDTH 2 0
BBX 1 5 0 0
VVECTOR 0 5
SWIDTH1 0 -1000
DWIDTH1 0 -7
BITMAP 
80
80
80
80
80
ENDCHAR
STARTCHAR m
ENCODING 109
SWIDTH 857 0
DWIDTH 6 0
BBX 5 4 0 0
VVECTOR 3 5
SWIDTH1 0 -1000
DWIDTH1 0 -7
BITMAP 
F0
A8
A8
88
ENDCHAR
STARTCHAR n
ENCODING 110
SWIDTH 714 0
DWIDTH 5 0
BBX 4 4 0 0
VVECTOR 2 5
SWIDTH1 0 -1000
DWIDTH1 0 -7
BITMAP 
E0
90
90
90
ENDCHAR
STARTCHAR o
ENCODING 111
SWIDTH 714 0
DWIDTH 5 0
BBX 4 4 0 0
VVECTOR 2 5
SWIDTH1 0 -1000
DWIDTH1 0 -7
BITMAP 
60
90
90
60
ENDCHAR
STARTCHAR p
ENCODING 112
SWIDTH 714 0
DWIDTH 5 0
BBX 4 6 0 -2
VVECTOR 2 5
SWIDTH1 0 -1000
DWIDTH1 0 -7
BITMAP 
E0
90
90
E0
80
80
ENDCHAR
STARTCHAR q
ENCODING 113
SWIDTH 714 0
DWIDTH 5 0
BBX 4 6 0 -2
VVECTOR 2 5
SWIDTH1 0 -1000
DWIDTH1 0 -7
BITMAP 
70
90
90
70
10
10
ENDCHAR
STARTCHAR r
ENCODING 114
SWIDTH 571 0
DWIDTH 4 0
BBX 3 4 0 0
VVECTOR 2 5
SWIDTH1 0 -1000
DWIDTH1 0 -7
BITMAP 
A0
C0
80
80
ENDCHAR
STARTCHAR s
ENCODING 115
SWIDTH 714 0
DWIDTH 5 0
BBX 4 4 0 0
VVECTOR 2 5
SWIDTH1 0 -1000
DWIDTH1 0 -7
BITMAP 
70
C0
30
E0
ENDCHAR
STARTCHAR t
ENCODING 116
SWIDTH 429 0
DWIDTH 3 0
BBX 2 5 0 0
VVECTOR 1 5
SWIDTH1 0 -1000
DWIDTH1 0 -7
BITMAP 
80
C0
80
80
40
ENDCHAR
STARTCHAR u
ENCODING 117
SWIDTH 714 0
DWIDTH 5 0
BBX 4 4 0 0
VVECTOR 2 5
SWIDTH1 0 -1000
DWIDTH1 0 -7
BITMAP 
90
90
90
70
ENDCHAR
STARTCHAR v
ENCODING 118
SWIDTH 714 0
DWIDTH 5 0
BBX 4 4 0 0
VVECTOR 2 5
SWIDTH1 0 -1000
DWIDTH1 0 -7
BITMAP 
90
90
A0
40
ENDCHAR
STARTCHAR w
ENCODING 119
SWIDTH 857 0
DWIDTH 6 0
BBX 5 4 0 0
VVECTOR 3 5
SWIDTH1 0 -1000
DWIDTH1 0 -7
BITMAP 
A8
A8
F8
50
ENDCHAR
STARTCHAR x
ENCODING 120
SWIDTH 714 0
DWIDTH 5 0
BBX 4 4 0 0
VVECTOR 2 5
SWIDTH1 0 -1000
DWIDTH1 0 -7
BITMAP 
90
60
40
B0
ENDCHAR
STARTCHAR y
ENCODING 121
SWIDTH 714 0
DWIDTH 5 0
BBX 4 6 0 -2
VVECTOR 2 5
SWIDTH1 0 -1000
DWIDTH1 0 -7
BITMAP 
90
90
50
20
10
E0
ENDCHAR
STARTCHAR z
ENCODING 122
SWIDTH 714 0
DWIDTH 5 0
BBX 4 4 0 0
VVECTOR 2 5
SWIDTH1 0 -1000
DWIDTH1 0 -7
BITMAP 
F0
20
40
F0
ENDCHAR
STARTCHAR braceleft
ENCODING 123
SWIDTH 571 0
DWIDTH 4 0
BBX 3 5 0 0
VVECTOR 2 5
SWIDTH1 0 -1000
DWIDTH1 0 -7
BITMAP 
60
40
C0
40
60
ENDCHAR
STARTCHAR bar
ENCODING 124
SWIDTH 286 0
DWIDTH 2 0
BBX 1 5 0 0
VVECTOR 0 5
SWIDTH1 0 -1000
DWIDTH1 0 -7
BITMAP 
80
80
80
80
80
ENDCHAR
STARTCHAR braceright
ENCODING 125
SWIDTH 571 0
DWIDTH 4 0
BBX 3 5 0 0
VVECTOR 2 5
SWIDTH1 0 -1000
DWIDTH1 0 -7
BITMAP 
C0
40
60
40
C0
ENDCHAR
STARTCHAR asciitilde
ENCODING 126
SWIDTH 714 0
DWIDTH 5 0
BBX 4 2 0 3
VVECTOR 2 5
SWIDTH1 0 -1000
DWIDTH1 0 -7
BITMAP 
50
A0
ENDCHAR
STARTCHAR char7F
ENCODING 127
SWIDTH 857 0
DWIDTH 6 0
BBX 5 5 0 0
VVECTOR 3 5
SWIDTH1 0 -1000
DWIDTH1 0 -7
BITMAP 
D8
B8
70
E8
D8
ENDCHAR
STARTCHAR default
ENCODING -1
SWIDTH 714 0
DWIDTH 5 0
BBX 5 7 0 -2
VVECTOR 3 5
SWIDTH1 0 -1000
DWIDTH1 0 -7
BITMAP 
F8
88
88
88
88
88
F8
ENDCHAR
ENDFONT
